Coordinates
version=1
nRows=43
nColumns=12
inDegrees=yes

Units are S.I. units (second, meters, Newtons, ...)
Angles are in degrees

endheader
time	SC_y	SC_z	SC_x	AC_y	AC_z	AC_x	GH_y	GH_z	GH_yy	EL_x	PS_y
       0.0               -43.0          11.05          61.53          63.38         -14.13         -2.136          63.73          12.08          177.3          132.2          105.8
     0.044               -43.0          11.05          61.53          63.38         -14.13         -2.138          63.74          12.09          177.3          132.2          105.8
   0.08799               -43.0          11.05          61.53          63.38         -14.12          -2.14          63.75          12.11          177.2          132.2          105.8
     0.132              -42.99          11.06          61.53          63.38         -14.12         -2.142          63.77          12.12          177.2          132.2          105.7
     0.176              -42.99          11.06          61.53          63.37         -14.12         -2.145          63.78          12.13          177.1          132.2          105.7
      0.22              -42.98          11.06          61.53          63.37         -14.11         -2.147           63.8          12.15          177.1          132.2          105.7
     0.264              -42.98          11.07          61.53          63.37         -14.11          -2.15          63.82          12.16          177.0          132.2          105.7
     0.308              -42.97          11.07          61.53          63.37         -14.11         -2.153          63.84          12.18          177.0          132.2          105.7
     0.352              -42.97          11.07          61.53          63.37          -14.1         -2.156          63.86          12.19          176.9          132.2          105.6
     0.396              -42.96          11.08          61.53          63.37          -14.1         -2.159          63.88          12.21          176.8          132.2          105.6
      0.44              -42.96          11.08          61.52          63.37         -14.09         -2.163           63.9          12.23          176.7          132.1          105.6
     0.484              -42.95          11.09          61.52          63.37         -14.09         -2.166          63.93          12.25          176.7          132.1          105.6
     0.528              -42.94          11.09          61.52          63.37         -14.08          -2.17          63.95          12.27          176.6          132.1          105.5
     0.572              -42.93           11.1          61.52          63.37         -14.08         -2.175          63.98           12.3          176.5          132.1          105.5
     0.616              -42.93          11.11          61.52          63.37         -14.07          -2.18          64.01          12.33          176.3          132.1          105.5
      0.66              -42.92          11.11          61.52          63.37         -14.06         -2.185          64.05          12.35          176.2          132.1          105.4
    0.7039              -42.91          11.12          61.52          63.37         -14.06         -2.191          64.08          12.39          176.1          132.1          105.4
    0.7479              -42.89          11.13          61.51          63.37         -14.05         -2.197          64.12          12.42          176.0          132.1          105.4
    0.7919              -42.88          11.14          61.51          63.36         -14.04         -2.204          64.17          12.46          175.8          132.0          105.3
    0.8359              -42.87          11.15          61.51          63.36         -14.03         -2.211          64.21           12.5          175.6          132.0          105.2
    0.8799              -42.85          11.16          61.51          63.36         -14.02         -2.219          64.27          12.54          175.5          132.0          105.2
    0.9239              -42.84          11.17          61.51          63.36         -14.01         -2.228          64.32          12.59          175.3          132.0          105.1
    0.9679              -42.82          11.18           61.5          63.36          -14.0         -2.238          64.39          12.65          175.0          131.9          105.1
     1.012               -42.8          11.19           61.5          63.36         -13.98         -2.249          64.46          12.71          174.8          131.9          105.0
     1.056              -42.78          11.21           61.5          63.35         -13.96         -2.261          64.54          12.77          174.5          131.9          104.9
       1.1              -42.76          11.23          61.49          63.35         -13.95         -2.275          64.63          12.85          174.2          131.8          104.8
     1.144              -42.73          11.25          61.49          63.35         -13.93          -2.29          64.72          12.93          173.9          131.8          104.7
     1.188               -42.7          11.27          61.48          63.35          -13.9         -2.307          64.83          13.03          173.5          131.7          104.6
     1.232              -42.66           11.3          61.48          63.34         -13.88         -2.326          64.96          13.13          173.1          131.7          104.4
     1.276              -42.62          11.32          61.47          63.34         -13.85         -2.348           65.1          13.25          172.6          131.6          104.3
      1.32              -42.58          11.36          61.47          63.33         -13.82         -2.373          65.26          13.39          172.0          131.6          104.1
     1.364              -42.53          11.39          61.46          63.33         -13.78         -2.402          65.45          13.55          171.4          131.5          103.9
     1.408              -42.47          11.44          61.45          63.32         -13.74         -2.435          65.66          13.73          170.6          131.4          103.6
     1.452               -42.4          11.49          61.44          63.31         -13.69         -2.474          65.91          13.94          169.7          131.3          103.4
     1.496              -42.32          11.54          61.42          63.31         -13.63         -2.519          66.21          14.19          168.7          131.2          103.0
      1.54              -42.23          11.61          61.41           63.3         -13.56         -2.572          66.55          14.49          167.5          131.0          102.7
     1.584              -42.11          11.69          61.39          63.28         -13.47         -2.635          66.96          14.83          166.1          130.8          102.2
     1.628              -41.98          11.79          61.37          63.27         -13.37         -2.711          67.45          15.25          164.4          130.6          101.7
     1.672              -41.81          11.91          61.35          63.25         -13.25         -2.803          68.04          15.76          162.4          130.4          101.0
     1.716              -41.61          12.06          61.31          63.23         -13.11         -2.915          68.77          16.37          159.8          130.1          100.2
      1.76              -41.37          12.23          61.28          63.21         -12.92         -3.053          69.66          17.13          156.7          129.7          99.22
     1.804              -41.06          12.46          61.23          63.18          -12.7         -3.225          70.78          18.08          152.9          129.2          97.99
     1.848              -40.67          12.74          61.17          63.14         -12.41         -3.442          72.18          19.28          148.0          128.6          96.43
